<mxfile host="app.diagrams.net" agent="Mozilla/5.0 (Windows NT 10.0; Win64; x64) AppleWebKit/537.36 (KHTML, like Gecko) Chrome/131.0.0.0 Safari/537.36" version="26.0.6">
  <diagram name="Page-1" id="yYot0N6bpK0c8X5oaLyG">
    <mxGraphModel dx="954" dy="618" grid="1" gridSize="10" guides="1" tooltips="1" connect="1" arrows="1" fold="1" page="1" pageScale="1" pageWidth="827" pageHeight="1169" math="0" shadow="0">
      <root>
        <mxCell id="0" />
        <mxCell id="1" parent="0" />
        <mxCell id="FAOl_n-leaDklx8tHRYQ-7" style="edgeStyle=orthogonalEdgeStyle;rounded=0;orthogonalLoop=1;jettySize=auto;html=1;entryX=0;entryY=0.5;entryDx=0;entryDy=0;" edge="1" parent="1" source="FAOl_n-leaDklx8tHRYQ-1" target="FAOl_n-leaDklx8tHRYQ-5">
          <mxGeometry relative="1" as="geometry" />
        </mxCell>
        <mxCell id="FAOl_n-leaDklx8tHRYQ-1" value="Visiteur" style="shape=umlActor;verticalLabelPosition=bottom;verticalAlign=top;html=1;outlineConnect=0;" vertex="1" parent="1">
          <mxGeometry x="30" y="70" width="30" height="60" as="geometry" />
        </mxCell>
        <mxCell id="FAOl_n-leaDklx8tHRYQ-2" value="Application mobile" style="text;html=1;align=center;verticalAlign=middle;whiteSpace=wrap;rounded=0;" vertex="1" parent="1">
          <mxGeometry width="110" height="30" as="geometry" />
        </mxCell>
        <mxCell id="FAOl_n-leaDklx8tHRYQ-9" style="edgeStyle=orthogonalEdgeStyle;rounded=0;orthogonalLoop=1;jettySize=auto;html=1;entryX=0;entryY=0.5;entryDx=0;entryDy=0;" edge="1" parent="1" source="FAOl_n-leaDklx8tHRYQ-3" target="FAOl_n-leaDklx8tHRYQ-4">
          <mxGeometry relative="1" as="geometry" />
        </mxCell>
        <mxCell id="FAOl_n-leaDklx8tHRYQ-3" value="Visionner les&lt;div&gt;séances réservées&lt;/div&gt;" style="ellipse;whiteSpace=wrap;html=1;" vertex="1" parent="1">
          <mxGeometry x="320" y="60" width="120" height="80" as="geometry" />
        </mxCell>
        <mxCell id="FAOl_n-leaDklx8tHRYQ-4" value="Visualiser le&lt;div&gt;QR code&lt;/div&gt;" style="ellipse;whiteSpace=wrap;html=1;" vertex="1" parent="1">
          <mxGeometry x="510" y="60" width="120" height="80" as="geometry" />
        </mxCell>
        <mxCell id="FAOl_n-leaDklx8tHRYQ-8" style="edgeStyle=orthogonalEdgeStyle;rounded=0;orthogonalLoop=1;jettySize=auto;html=1;entryX=0;entryY=0.5;entryDx=0;entryDy=0;" edge="1" parent="1" source="FAOl_n-leaDklx8tHRYQ-5" target="FAOl_n-leaDklx8tHRYQ-3">
          <mxGeometry relative="1" as="geometry" />
        </mxCell>
        <mxCell id="FAOl_n-leaDklx8tHRYQ-5" value="Se connecter" style="ellipse;whiteSpace=wrap;html=1;" vertex="1" parent="1">
          <mxGeometry x="130" y="60" width="120" height="80" as="geometry" />
        </mxCell>
      </root>
    </mxGraphModel>
  </diagram>
</mxfile>
